<svg t="1685087465181" class="icon" viewBox="0 0 1024 1024" version="1.1" xmlns="http://www.w3.org/2000/svg" p-id="7950"
     width="200" height="200">
    <path d="M931.84 517.12C931.84 768 732.16 972.8 486.4 972.8S40.96 768 40.96 517.12 240.64 61.44 486.4 61.44c93.184 0 182.272 28.672 257.024 83.968 9.216 7.168 11.264 19.456 4.096 28.672s-19.456 11.264-28.672 4.096C651.264 129.024 570.368 102.4 486.4 102.4 263.168 102.4 81.92 288.768 81.92 517.12S263.168 931.84 486.4 931.84 890.88 745.472 890.88 517.12c0-11.264 9.216-20.48 20.48-20.48s20.48 9.216 20.48 20.48z m44.032-349.184c-8.192-8.192-21.504-8.192-28.672 0L512 612.352 325.632 422.912c-8.192-8.192-20.48-8.192-28.672 0s-8.192 20.48 0 28.672l200.704 204.8c4.096 4.096 9.216 6.144 14.336 6.144 5.12 0 11.264-2.048 14.336-6.144l449.536-459.776c8.192-8.192 8.192-21.504 0-28.672z"
          p-id="7951" fill="#f15bb5"></path>
</svg>